<svg xmlns="http://www.w3.org/2000/svg" width="144.007" height="43.26" viewBox="0 0 144.007 43.26"><defs><style>.a{fill:#efefef;}.b{fill:none;stroke:#efefef;stroke-width:0.876px;}</style></defs><path class="a" d="M52.87,51.6V29.615a2.555,2.555,0,0,1,2.573-2.567h2.5v9.137H68.077V27.048h5.142V51.6H68.077V40.686H57.94V51.6Z" transform="translate(-9.919 -9.348)"/><path class="a" d="M81.244,49.105a8.724,8.724,0,0,1-3.176.962,28.543,28.543,0,0,1-2.964.178,7.482,7.482,0,0,1-4.494-1.391q-1.93-1.393-1.93-4.606,0-3,1.75-4.283a10.109,10.109,0,0,1,4.464-1.717,3.961,3.961,0,0,0,.854-.1c.333-.07.716-.129,1.146-.177q3.141-.43,3.141-1.857a1.359,1.359,0,0,0-1.107-1.394,7.407,7.407,0,0,0-2.034-.32,5.3,5.3,0,0,0-1.789.284,1.933,1.933,0,0,0-1.138,1.074H69.18a5.507,5.507,0,0,1,2-3.642,8.262,8.262,0,0,1,5.5-1.642,10.756,10.756,0,0,1,6,1.358,4.582,4.582,0,0,1,2.069,4v6.5a8.235,8.235,0,0,1-1.033,4.462,6.363,6.363,0,0,1-2.466,2.321M80.1,40.321a13.438,13.438,0,0,1-2.782.93l-1.64.359a4.182,4.182,0,0,0-1.859.925,2.9,2.9,0,0,0-.5,1.571,2.309,2.309,0,0,0,.645,1.713,2.68,2.68,0,0,0,1.853.571A3.95,3.95,0,0,0,80.1,42.107Z" transform="translate(-3.716 -8.006)"/><path class="a" d="M92.437,50.036h-5.07L80.729,31.048h5.284l3.78,13.35,3.356-11.637a2.237,2.237,0,0,1,2.285-1.713h3.715Z" transform="translate(1.012 -7.779)"/><path class="a" d="M93.788,50.036V40.826a11.765,11.765,0,0,1,.819-4.677,7.75,7.75,0,0,1,2.253-3.034,8.819,8.819,0,0,1,3.176-1.569,14.162,14.162,0,0,1,3.748-.5h.711v5.068h-1.642a4.17,4.17,0,0,0-3.066,1,4.284,4.284,0,0,0-1,3.144v9.778Z" transform="translate(6.135 -7.779)"/><path class="a" d="M115.165,44.033h3.57a7.792,7.792,0,0,1-3,4.568,9.08,9.08,0,0,1-5.568,1.644,7.947,7.947,0,0,1-6.356-2.644q-2.285-2.569-2.285-7.354a10.6,10.6,0,0,1,2.21-7.134A7.964,7.964,0,0,1,110.1,30.47a8.55,8.55,0,0,1,6.636,2.567q2.289,2.644,2.289,7.357v.783a1.164,1.164,0,0,1-.075.5H106.6a4.9,4.9,0,0,0,1.071,3.283,3.369,3.369,0,0,0,2.785,1.146,4,4,0,0,0,2.069-.5,1,1,0,0,0,.39-.248c.121-.12.253-.251.4-.4a1.519,1.519,0,0,1,.537-.568,2.115,2.115,0,0,1,1.317-.359M106.6,38.465h7.282a4.627,4.627,0,0,0-1-2.856,3.426,3.426,0,0,0-2.644-1,3.476,3.476,0,0,0-2.567,1,4.1,4.1,0,0,0-1.071,2.856" transform="translate(9.173 -8.006)"/><path class="a" d="M33.435,27.045H36a2.422,2.422,0,0,1,1.717.679,2.237,2.237,0,0,1,.711,1.681V51.6h-5Z" transform="translate(-17.544 -9.35)"/><path class="a" d="M51.89,44.073h3.569a7.791,7.791,0,0,1-3,4.567,9.083,9.083,0,0,1-5.568,1.642A7.946,7.946,0,0,1,40.54,47.64q-2.287-2.569-2.289-7.352a10.6,10.6,0,0,1,2.218-7.141,7.945,7.945,0,0,1,6.352-2.639,8.541,8.541,0,0,1,6.64,2.57q2.283,2.638,2.281,7.352v.785a1.253,1.253,0,0,1-.068.5H43.322A4.909,4.909,0,0,0,44.393,45a3.37,3.37,0,0,0,2.783,1.143,4.009,4.009,0,0,0,2.073-.5.956.956,0,0,0,.39-.248c.116-.12.253-.249.391-.393a1.594,1.594,0,0,1,.539-.569,2.129,2.129,0,0,1,1.321-.356M43.322,38.5H50.6a4.6,4.6,0,0,0-1-2.857,3.424,3.424,0,0,0-2.641-1,3.479,3.479,0,0,0-2.569,1A4.1,4.1,0,0,0,43.322,38.5" transform="translate(-15.655 -7.99)"/><path class="a" d="M123.859,14.763V27.051c3.7-.739,7.395-.7,11.093,1.593V16.356c-3.7-2.295-7.393-2.332-11.093-1.593m5.408,3.89a1.486,1.486,0,0,1,1.54-.255.955.955,0,0,0-.563.132,2,2,0,0,1,1.455.4,1.463,1.463,0,0,0-1.11.269,1.977,1.977,0,0,1-2.055-.2,1.046,1.046,0,0,0,.732-.352m-3.272-1.424c.018.019.04.031.063.053a.629.629,0,0,0,0-.072c0-.052-.043-.18-.049-.252a.827.827,0,0,1-.01-.085l.058.028a.826.826,0,0,1,.4.291.3.3,0,0,1,.05.045.642.642,0,0,0,0-.072c0-.056-.039-.43-.043-.5a.58.58,0,0,0-.01-.071.348.348,0,0,1,.053.008c.269.045.408.5.468.656.063-.159.142-.656.411-.735a.314.314,0,0,0,.052-.015c0,.024-.006.046-.008.07,0,.077.014.485.018.544a.608.608,0,0,0,.007.072.174.174,0,0,1,.043-.052.982.982,0,0,1,.381-.333c.022-.011.04-.024.061-.035-.007.04-.014.082-.021.12,0,.072-.026.175-.025.228a.361.361,0,0,0,.006.075.311.311,0,0,1,.063-.065l.054-.052v.1a1.987,1.987,0,0,0-.21.671,3.387,3.387,0,0,0-.732-.1,4.59,4.59,0,0,0-.975.152,1.92,1.92,0,0,0-.162-.617c0-.033,0-.068,0-.1.018.015.039.032.061.049m2.416,6.672c-.219-.929,2.613-.771,2.613-.685a1.154,1.154,0,0,0-.142.38c-2.385-.54-2.469.256-2.471.3m5.461.554c-.642.248-1.44-.423-2.068-.6.047-.18.345-.379.345-.377.706.226,1.174.469,1.21-.024.026-.377-.533-.7-1.119-.826a1,1,0,0,1-.312-.666l-.008.013s-.256.349.3,1.222c.032.043-.741.272-.788.851a.546.546,0,0,1,.294.426c0,.057-.412.134-.412.136s.039-.212-.043-.242a2.673,2.673,0,0,0-.639.206s.109-.334.029-.348a2.019,2.019,0,0,0-.427.008,1.2,1.2,0,0,1,.21-.192.928.928,0,0,1,.557-.123c.11-.269.219-.539.331-.8a1.6,1.6,0,0,1-.518-.5,1.426,1.426,0,0,0-.251.056c-.366.074-.739.16-1.078.194a3.069,3.069,0,0,1-.841-.025c-.21-.045-.71-.4-.681-.714-.04,0,0,.028-.033.031a1.1,1.1,0,0,0,.075.673c.015.032-.8.3-.909.89.116.064.188.148.185.241-.011.078-.418.263-.418.263s.038-.22-.043-.227a3.164,3.164,0,0,0-.638.39s.095-.375.028-.368a2.556,2.556,0,0,0-.427.136,2.03,2.03,0,0,1,.21-.248,1.252,1.252,0,0,1,.483-.259c.007,0,.084-.021.084-.021a3.313,3.313,0,0,0,.572-.8.127.127,0,0,0-.043-.136c-.149-.014-.142-.011-.37-.022a2.461,2.461,0,0,1-2.374-1.33,2.333,2.333,0,0,1,.525-2.413,3.126,3.126,0,0,1,2.139-.679,4.209,4.209,0,0,1,1.082.4c.109.068-.008.195-.248.262-.216.06-.493.01-.819.05a3.32,3.32,0,0,0,.411.18,2.6,2.6,0,0,1,.39.088.065.065,0,0,1-.011.043,2.266,2.266,0,0,1-1.239.245c-.2-.025-.244-.155-.483-.288a.9.9,0,0,0-1.061,1.022c.065.881.764,1.385,1.867.524a2.782,2.782,0,0,1,1.211-.636c0,.01.01.079.018.153a4.3,4.3,0,0,1,1.076-.341c0,.014.026.134.043.249a3.686,3.686,0,0,1,.957-.231c0,.015.033.195.058.317a3.241,3.241,0,0,1,.925-.107c0,.019.029.212.043.319a3.772,3.772,0,0,1,.965.058c0,.015.008.2.013.3a3.359,3.359,0,0,1,.767.259c0,.008-.021.164-.032.242a4.661,4.661,0,0,1,.689.465.981.981,0,0,0-.065.152,4.966,4.966,0,0,1,.432.515c-.032.021-.063.045-.092.067.515.816.542,1.7-.035,1.91M112.62,30.145c3.655-.785,7.31-2.274,10.965-3.041V14.866c-3.655.767-7.31,2.253-10.965,3.041Zm4.18-3.1a.771.771,0,0,1-1.008-.058.045.045,0,0,1-.007-.056.056.056,0,0,1,.052-.018.443.443,0,0,0,.482-.054,1.41,1.41,0,0,0,.312-.9.069.069,0,0,1,.039-.052c.237-.065.472-.134.709-.2.024-.007.043,0,.043.026a1.669,1.669,0,0,1-.621,1.307m-.068-1.394v-.663a.081.081,0,0,1,.053-.061c.98-.278,1.962-.569,2.942-.845a.039.039,0,0,1,.047.036v.663a.06.06,0,0,1-.047.052c-.98.276-1.962.567-2.942.844-.025.007-.05,0-.053-.025m1.544,1.667c-.01.018-.018.022-.028.024s-.026.007-.033,0a1.786,1.786,0,0,1-.414-.855,3.437,3.437,0,0,1,.192-.9.046.046,0,0,1,.036-.04l.447-.128a.029.029,0,0,1,.036.018,2.43,2.43,0,0,1,.18.792,3.393,3.393,0,0,1-.416,1.092m2.491-1.738c-.33.446-.692.67-1.008.617a.873.873,0,0,1-.622-.954.047.047,0,0,1,.036-.049c.238-.07.475-.135.713-.2.025-.008.04,0,.04.028,0,.135.054.643.312.721.124.045.287-.031.483-.21a.034.034,0,1,1,.046.049m.49-5.051a1.07,1.07,0,0,1,.954.512,1.637,1.637,0,0,1,.174,1.313,2.886,2.886,0,0,1-1.3,1.53.03.03,0,0,1-.036-.007.038.038,0,0,1,0-.045,1.544,1.544,0,0,0,.323-1.007.481.481,0,0,0-.351-.384.529.529,0,0,0-.5.132,1.977,1.977,0,0,0-.628,1.232.063.063,0,0,1-.04.043l-.762.216a.026.026,0,0,1-.036-.028,4.988,4.988,0,0,1,.675-2.341,2,2,0,0,1,1.523-1.168m-2.81-2.847c.061,0,.118.007.177.011a20.643,20.643,0,0,0,1.419,3.034c.007.007.006.035-.006.039a5.164,5.164,0,0,0-1.307,3.367.043.043,0,0,1-.029.046l-.258.075q0-3.285,0-6.572m-.508.207c.058-.036.117-.075.177-.111q0,3.283,0,6.571c-.084.024-.167.046-.251.071-.018.006-.033-.006-.036-.029-.077-.886-.319-2.295-1.306-2.619-.007,0-.007-.026-.007-.038a35.947,35.947,0,0,0,1.422-3.844m-3.6,5.3a2.153,2.153,0,0,1,.961-.993,1.155,1.155,0,0,1,1.525.334,3.067,3.067,0,0,1,.667,1.956.051.051,0,0,1-.033.049l-.762.219c-.021,0-.039-.007-.036-.024a.983.983,0,0,0-.635-.88.535.535,0,0,0-.493.134.914.914,0,0,0-.347.567.97.97,0,0,0,.317.838.033.033,0,0,1,0,.045.046.046,0,0,1-.043.026,1.4,1.4,0,0,1-1.288-.877,1.893,1.893,0,0,1,.163-1.394M107.9,20.76s.184.125.365-.116c.106-.149.074-.22.074-.22-.092,0-.558.085-.558.084a.232.232,0,0,0,.12.252m18.847-2.022a.162.162,0,0,0,.084-.173,2.125,2.125,0,0,0-.382-.038s-.018.052.052.143c.123.156.246.067.246.067m-25.582-2.31V28.6c3.727,2.289,7.455,2.292,11.179,1.527V17.959c-3.725.764-7.452.759-11.179-1.53m3.874,3a1.649,1.649,0,0,0-.359-.535,1.947,1.947,0,0,1,1.016,1.242,1.335,1.335,0,0,0,.444.771c-.611.457-1.3-.426-1.49-.9a2.764,2.764,0,0,0-.7-1.16c.3-.121.82.3,1.085.585m4.8,1.643a1.617,1.617,0,0,1-.343.065c.05.2.1.4.15.6a1.936,1.936,0,0,1-.326.064c.029.173.061.347.09.519a2.461,2.461,0,0,1-.326.06c.025.139.05.277.077.416a.517.517,0,0,1-.526-.038,1.718,1.718,0,0,0,.065.673c.106.248.468.322.823.755a2.437,2.437,0,0,1,.327,1.035c.622-.015.544-.678.391-1.4-.7-3.239,1.145-3.012,1.145-3.031.847.052.436,1.04.436,1.043s.2-.78-.5-.716c-.678.053-.812,1.03-.812,1.032a.8.8,0,0,1,.711-.4c.459.046.29.664.29.664.018-.455-.331-.44-.331-.443-.684.079-.532,1.071-.532,1.074a2.2,2.2,0,0,0,.086.34,5.505,5.505,0,0,1,.381,1.1,1.523,1.523,0,0,1-1.132,1.825c.008.192.026.408.026.408.206-.008.416-.021.627-.039a.288.288,0,0,1,.086.123,7.063,7.063,0,0,1-.209,1.615s.173.143.192.219a2.863,2.863,0,0,1-.092.556V29.2a.118.118,0,0,1-.093.118.846.846,0,0,0-.088.01.086.086,0,0,1-.09-.092V29.17a.064.064,0,0,0-.07-.07c-.021,0-.046,0-.067.006a.084.084,0,0,0-.067.086v.068a.113.113,0,0,1-.091.109q-.044.006-.088.008a.08.08,0,0,1-.089-.081v-.079a.067.067,0,0,0-.07-.072c-.022,0-.046,0-.065,0a.082.082,0,0,0-.068.085V29.3h0a.109.109,0,0,1-.091.107l-.086.007a.092.092,0,0,1-.095-.1v-.111a.327.327,0,0,1,.084-.291c.128-.132.482-.473.482-.473a2.544,2.544,0,0,1-.141-.714c-.228.184-.947.49-1.211.3s-.043-1.182-.043-1.182a2.9,2.9,0,0,0-.382-.746l-.123.095a3.106,3.106,0,0,1,.258.7c-.333.191-.664.373-1,.543,0,0,.095.657.1.723a.591.591,0,0,1-.192.372c-.075.043-1.61,0-1.729-.017-.1.013-.152.251-.163.344v.1a.079.079,0,0,1-.091.084l-.086-.018a.132.132,0,0,1-.092-.124v-.06h0a.1.1,0,0,0-.072-.1.533.533,0,0,0-.064-.015c-.036-.008-.067.022-.067.07v.064a.079.079,0,0,1-.093.078c-.026-.008-.054-.014-.081-.021a.13.13,0,0,1-.093-.113V28.73a.11.11,0,0,0-.072-.1l-.061-.017a.059.059,0,0,0-.074.064v.061a.073.073,0,0,1-.093.078l-.081-.024a.144.144,0,0,1-.093-.131v-.065c-.072-.638.387-.711.812-.667a7.142,7.142,0,0,0,1.3-.11s-.656-.681-.579-.92a10.467,10.467,0,0,1,1.9-1.055,1.75,1.75,0,0,1-1.17-.827s-.414.5-.494.564a8.032,8.032,0,0,1-1.721.043,1.353,1.353,0,0,1,.032.532c0,.008.007.014.007.025v.082a.067.067,0,0,1-.086.068l-.072-.022a.143.143,0,0,1-.077-.1l-.007,0v-.065a.087.087,0,0,0-.056-.086l-.053-.018c-.04-.013-.065.008-.065.052v.064a.057.057,0,0,1-.077.054l-.075-.026a.153.153,0,0,1-.081-.107V26a.093.093,0,0,0-.054-.089l-.058-.022a.047.047,0,0,0-.061.05v.064a.058.058,0,0,1-.079.052c-.026-.008-.052-.019-.072-.028a.129.129,0,0,1-.081-.12c-.018-.086-.159-.762.331-.906.518-.135,1.863-.363,1.863-.383,0,0,.479-.742.728-1.122l-.149-.038c-.143.129-.283.26-.423.388a5.908,5.908,0,0,1-.957.067c-.038-.031-.259-1.981-.338-2.232-.065-.219-.507-.256-.746-.324-.011,0-.015,0-.026,0l-.018-.007a.3.3,0,0,1-.032-.013l-.029-.011a.139.139,0,0,1-.095-.116v-.072c0-.043.045-.061.095-.043l.018.007v0l.032.013c.04.015.07,0,.07-.033v-.058a.1.1,0,0,0-.07-.081c-.017-.007-.036-.013-.05-.019a.141.141,0,0,1-.095-.12v-.07c0-.042.036-.058.081-.05l.064.024c.04.015.07-.007.07-.036v-.053a.107.107,0,0,0-.07-.091c-.021-.007-.043-.015-.064-.021v0a.13.13,0,0,1-.081-.107v-.077c0-.036.033-.056.077-.045a1.438,1.438,0,0,1,1.526,1.012c.063.213.239,1.434.287,1.484a10.07,10.07,0,0,0,1.774-.128s.125-.238.072-.354-.65-.408-.661-.457a2.755,2.755,0,0,1,.058-.579s.04.171.117.207c.22.109.642.408.927.383.018-.312.036-.627.054-.938,0,0-.593.036-.862.028-.16.018-.1.006-.207.134-.018.026-.057-.905.038-.936s.97-.008,1.026-.025.213-.195.249-.206a12.52,12.52,0,0,1,1.722.184c.127.331.249.661.376.99" transform="translate(9.031 -14.336)"/><line class="b" x1="144.007" transform="translate(0 42.822)"/></svg>