<svg xmlns="http://www.w3.org/2000/svg" width="374.065" height="100.89" viewBox="0 0 374.065 100.89"><defs><style>.a{fill:#e30b17;}.b{fill:none;stroke:#000;stroke-miterlimit:10;stroke-width:0.75px;}</style></defs><g transform="translate(-201.4 -131.6)"><g transform="translate(203.78 140.615)"><path class="a" d="M213.931,180.365v25.89H204.7V145.1h9.231v25.962h11.106V145.1h9.231v61.154h-9.231v-25.89Z" transform="translate(-204.7 -144.379)"/><path class="a" d="M271.667,144.1a14.163,14.163,0,0,1,10.385,4.327,14.335,14.335,0,0,1,4.255,10.313v33.39a14.163,14.163,0,0,1-4.327,10.385,14.335,14.335,0,0,1-10.313,4.255,13.889,13.889,0,0,1-10.313-4.327,14.336,14.336,0,0,1-4.255-10.313V158.74a14.163,14.163,0,0,1,4.327-10.385A13.556,13.556,0,0,1,271.667,144.1Zm4.976,14.423a5.17,5.17,0,0,0-1.514-3.75,5.4,5.4,0,0,0-7.5,0,5.116,5.116,0,0,0-1.587,3.75v33.462a4.963,4.963,0,0,0,1.587,3.75,5.4,5.4,0,0,0,7.5,0,5.055,5.055,0,0,0,1.514-3.75Z" transform="translate(-219.311 -144.1)"/><path class="a" d="M319.213,145.1l12.26,41.106V145.1H340.7v61.226h-9.88l-12.692-39.159v39.159H308.9V145.1Z" transform="translate(-233.755 -144.379)"/><path class="a" d="M364.4,206.226V145h26.25v9.3H373.631v16.659h12.476v9.3H373.631v16.659H390.65v9.3Z" transform="translate(-249.231 -144.351)"/><path class="a" d="M424.24,206.769a14.65,14.65,0,0,1-14.64-14.64V158.74a14.163,14.163,0,0,1,4.327-10.385A14.335,14.335,0,0,1,424.24,144.1a13.889,13.889,0,0,1,10.313,4.327,14.335,14.335,0,0,1,4.255,10.313v7h-9.591V158.6a4.963,4.963,0,0,0-1.587-3.75,5.237,5.237,0,0,0-3.75-1.587,4.963,4.963,0,0,0-3.75,1.587,5.17,5.17,0,0,0-1.514,3.75v33.462a5.17,5.17,0,0,0,1.514,3.75,5.4,5.4,0,0,0,7.5,0,5.116,5.116,0,0,0,1.587-3.75V180.086H424.1v-9.3h14.712v21.346a13.889,13.889,0,0,1-4.327,10.313A13.579,13.579,0,0,1,424.24,206.769Z" transform="translate(-261.835 -144.1)"/><path class="a" d="M475.639,206.769A14.65,14.65,0,0,1,461,192.129V158.74a14.163,14.163,0,0,1,4.327-10.385,14.335,14.335,0,0,1,10.313-4.255,13.889,13.889,0,0,1,10.313,4.327,14.335,14.335,0,0,1,4.255,10.313v7h-9.591V158.6a4.963,4.963,0,0,0-1.587-3.75,5.237,5.237,0,0,0-3.75-1.587,4.963,4.963,0,0,0-3.75,1.587,5.171,5.171,0,0,0-1.514,3.75v33.462a5.171,5.171,0,0,0,1.514,3.75,5.4,5.4,0,0,0,7.5,0,5.116,5.116,0,0,0,1.587-3.75V180.086H475.5v-9.3h14.712v21.346a13.889,13.889,0,0,1-4.327,10.313A13.579,13.579,0,0,1,475.639,206.769Z" transform="translate(-276.167 -144.1)"/><path class="a" d="M512.6,206.226V145h26.25v9.3H521.831v16.659h12.476v9.3H521.831v16.659H538.85v9.3Z" transform="translate(-290.555 -144.351)"/><path class="a" d="M572.367,145.072c5.12,0,8.942,1.442,11.322,4.255,2.091,2.452,3.173,5.913,3.173,10.313v8.87a14.309,14.309,0,0,1-4.9,10.962l6.851,26.683h-9.952l-5.625-23h-6.2v23H557.8V145h14.567Zm5.553,14.784c0-3.534-1.731-5.337-5.264-5.337H567.1v19.543h5.553a4.963,4.963,0,0,0,3.75-1.587,5.17,5.17,0,0,0,1.514-3.75Z" transform="translate(-303.159 -144.351)"/><path class="a" d="M618.3,179.283V145.1h9.231v34.183l-.649,11.827h-7.861Zm0,26.971v-9.3h9.231v9.3Z" transform="translate(-320.029 -144.379)"/></g><g transform="translate(201.4 214.677)"><path d="M214.741,252.281a5.123,5.123,0,0,0-5.264-4.111c-4.543,0-6.49,3.75-6.49,7.5s1.947,7.5,6.49,7.5c3.173,0,5.192-2.452,5.481-5.481h1.659c-.433,4.183-3.1,6.851-7.139,6.851-5.409,0-8.077-4.255-8.077-8.87s2.668-8.87,8.077-8.87c3.245,0,6.49,1.947,6.923,5.553h-1.659Z" transform="translate(-201.4 -246.8)"/><path d="M232.877,246.8c5.409,0,8.077,4.255,8.077,8.87s-2.668,8.87-8.077,8.87-8.077-4.255-8.077-8.87S227.468,246.8,232.877,246.8Zm0,16.37c4.543,0,6.418-3.75,6.418-7.5s-1.947-7.5-6.418-7.5c-4.543,0-6.49,3.75-6.49,7.5S228.334,263.17,232.877,263.17Z" transform="translate(-207.925 -246.8)"/><path d="M250.7,247.3h1.8l10.024,14.423h.072V247.3h1.659v17.091h-1.8l-10.024-14.423h-.072v14.423H250.7Z" transform="translate(-215.147 -246.939)"/><path d="M274.554,258.627c-.072,3.534,2.452,4.615,5.625,4.615,1.8,0,4.543-1.01,4.543-3.462,0-1.947-1.947-2.74-3.534-3.1l-3.822-.937c-2.019-.5-3.894-1.442-3.894-4.111,0-1.659,1.082-4.832,5.913-4.832,3.389,0,6.346,1.8,6.346,5.337h-1.659c-.072-2.6-2.236-3.894-4.688-3.894-2.236,0-4.327.865-4.327,3.389,0,1.587,1.226,2.308,2.6,2.6l4.183,1.01c2.452.649,4.471,1.731,4.471,4.471,0,1.154-.5,4.9-6.563,4.9-4.038,0-7.067-1.8-6.851-5.986Z" transform="translate(-221.333 -246.8)"/><path d="M295.172,247.3H307v1.37H296.759v6.2h9.591v1.37h-9.591v6.779h10.313v1.37H295.1V247.3Z" transform="translate(-227.527 -246.939)"/><path d="M314.9,247.3h7.861c2.813,0,5.192,1.37,5.192,4.471a4.1,4.1,0,0,1-3.317,4.327v.072c2.236.288,2.885,1.8,3.029,3.822.072,1.154.072,3.534.793,4.4h-1.8a5.634,5.634,0,0,1-.433-2.668c-.144-2.38-.361-5.048-3.462-4.9h-6.2v7.572H314.9V247.3Zm1.659,8.077h6.13c2.019,0,3.678-1.226,3.678-3.317s-1.226-3.389-3.678-3.389h-6.13Z" transform="translate(-233.049 -246.939)"/><path d="M334.7,247.3h1.731l5.553,15.289h.072l5.553-15.289h1.731l-6.346,17.091h-1.875Z" transform="translate(-238.57 -246.939)"/><path d="M359.623,247.3h1.8l6.707,17.091H366.4l-2.091-5.337h-7.789l-2.091,5.337H352.7Zm-2.6,10.385h6.779l-3.317-8.726Z" transform="translate(-243.589 -246.939)"/><path d="M371.472,247.3H385.1v1.37h-6.058v15.721h-1.659V248.67H371.4V247.3Z" transform="translate(-248.803 -246.939)"/><path d="M399.377,246.8c5.409,0,8.077,4.255,8.077,8.87s-2.668,8.87-8.077,8.87-8.077-4.255-8.077-8.87S393.968,246.8,399.377,246.8Zm0,16.37c4.543,0,6.418-3.75,6.418-7.5s-1.947-7.5-6.418-7.5c-4.543,0-6.49,3.75-6.49,7.5C392.959,259.42,394.834,263.17,399.377,263.17Z" transform="translate(-254.352 -246.8)"/><path d="M417.4,247.3h1.659v17.091H417.4Z" transform="translate(-261.63 -246.939)"/><path d="M424.7,247.3h7.861c2.813,0,5.192,1.37,5.192,4.471a4.1,4.1,0,0,1-3.317,4.327v.072c2.236.288,2.885,1.8,3.029,3.822.072,1.154.072,3.534.793,4.4h-1.8a5.635,5.635,0,0,1-.433-2.668c-.144-2.38-.361-5.048-3.462-4.9h-6.2v7.572H424.7V247.3Zm1.586,8.077h6.13c2.019,0,3.678-1.226,3.678-3.317s-1.226-3.389-3.678-3.389h-6.13Z" transform="translate(-263.665 -246.939)"/><path d="M446.872,247.3H458.7v1.37h-10.24v6.2h9.591v1.37h-9.591v6.779h10.313v1.37H446.8V247.3Z" transform="translate(-269.828 -246.939)"/><path d="M475.9,247.3h5.913c5.192.144,7.861,2.957,7.861,8.51,0,5.625-2.74,8.438-7.861,8.51H475.9Zm1.659,15.721h3.461c4.9,0,7.067-2.091,7.067-7.139,0-5.12-2.163-7.212-7.067-7.139h-3.461Z" transform="translate(-277.942 -246.939)"/><path d="M498.5,247.3h1.659v10.6c0,3.966,1.875,5.481,5.048,5.481s5.048-1.514,5.048-5.481V247.3h1.659v10.962c0,3.534-1.875,6.49-6.707,6.49-4.76,0-6.635-2.957-6.635-6.49V247.3Z" transform="translate(-284.244 -246.939)"/><path d="M530.9,247.3h1.659v7.428h10.168V247.3h1.659v17.091h-1.659V256.1H532.559v8.293H530.9Z" transform="translate(-293.278 -246.939)"/><path d="M558.623,247.3h1.8l6.707,17.091H565.4l-2.091-5.337h-7.788l-2.091,5.337H551.7Zm-2.6,10.385h6.779l-3.317-8.726Z" transform="translate(-299.078 -246.939)"/><path d="M571.1,247.3h1.731l5.553,15.289h.072l5.553-15.289h1.731l-6.346,17.091h-1.875Z" transform="translate(-304.488 -246.939)"/><path d="M593.5,247.3h7.861c2.813,0,5.192,1.37,5.192,4.471a4.1,4.1,0,0,1-3.317,4.327v.072c2.236.288,2.885,1.8,3.029,3.822.072,1.154.072,3.534.793,4.4h-1.8a5.635,5.635,0,0,1-.433-2.668c-.144-2.38-.361-5.048-3.462-4.9h-6.2v7.572H593.5V247.3Zm1.587,8.077h6.13c2.019,0,3.678-1.226,3.678-3.317s-1.226-3.389-3.678-3.389h-6.13Z" transform="translate(-310.734 -246.939)"/><path d="M615.7,247.3h11.827v1.37H617.359v6.2h9.591v1.37h-9.591v6.779h10.313v1.37H615.7Z" transform="translate(-316.924 -246.939)"/></g><rect class="a" width="9.231" height="46.154" transform="translate(502.051 141.336)"/><g transform="translate(525.056 132.105)"><path d="M651.4,132.6h1.154l2.885,7.212,2.813-7.212H659.4v8.221h-.793v-7.139h0l-2.813,7.139h-.721l-2.812-7.139h0v7.139h-.793V132.6Z" transform="translate(-650.535 -132.384)"/><path d="M664.6,132.6h.793v5.12c0,1.947.865,2.668,2.38,2.668s2.452-.721,2.452-2.668V132.6h.793v5.264a2.914,2.914,0,0,1-3.173,3.173,2.879,2.879,0,0,1-3.173-3.173V132.6Z" transform="translate(-654.215 -132.384)"/><path d="M675.836,138.1c0,1.731,1.154,2.236,2.668,2.236.865,0,2.163-.5,2.163-1.659,0-.938-.938-1.3-1.731-1.514l-1.8-.433a2.043,2.043,0,0,1-1.875-2.019c0-.793.5-2.308,2.813-2.308,1.659,0,3.029.865,3.029,2.6h-.793a2.043,2.043,0,0,0-2.236-1.875c-1.082,0-2.091.433-2.091,1.659,0,.793.577,1.082,1.226,1.226l2.019.5c1.154.288,2.163.793,2.163,2.163,0,.577-.216,2.38-3.173,2.38-1.947,0-3.389-.865-3.317-2.885h.938Z" transform="translate(-657.086 -132.328)"/><path d="M685.9,132.6h.793v8.221H685.9Z" transform="translate(-660.155 -132.384)"/><path d="M696.056,141.314l-1.3-.937a4.018,4.018,0,0,1-2.163.577c-2.6,0-3.894-2.019-3.894-4.327s1.3-4.327,3.894-4.327,3.894,2.019,3.894,4.327a4.524,4.524,0,0,1-1.226,3.245l1.154.865Zm-1.37-1.8a3.921,3.921,0,0,0,1.082-2.813c0-1.8-.937-3.606-3.1-3.606s-3.1,1.8-3.1,3.606.938,3.606,3.1,3.606a2.666,2.666,0,0,0,1.514-.433l-1.082-.793.433-.5Z" transform="translate(-660.935 -132.3)"/><path d="M701.1,132.6h.793v5.12c0,1.947.865,2.668,2.38,2.668s2.452-.721,2.452-2.668V132.6h.793v5.264a2.935,2.935,0,0,1-3.245,3.173,2.879,2.879,0,0,1-3.173-3.173V132.6Z" transform="translate(-664.393 -132.384)"/><path d="M712.1,132.6h5.7v.649h-4.9v2.957h4.615v.649h-4.615V140.1h4.976v.649H712.1V132.6Z" transform="translate(-667.46 -132.384)"/><path d="M651.4,152.6h2.885c2.452.072,3.75,1.442,3.75,4.111s-1.3,4.038-3.75,4.111H651.4Zm.793,7.572h1.659c2.38,0,3.39-1.01,3.39-3.462s-1.01-3.462-3.39-3.462h-1.659Z" transform="translate(-650.535 -137.96)"/><path d="M664.389,152.6h.865l3.245,8.221h-.865l-1.01-2.6h-3.75l-1.01,2.6H661Zm-1.226,5.048h3.245l-1.587-4.255Z" transform="translate(-653.212 -137.96)"/><path d="M672.4,152.6h.865l4.832,7h0v-7h.793v8.221h-.865l-4.832-7h0v7H672.4Z" transform="translate(-656.39 -137.96)"/><path d="M683.836,158.1c0,1.731,1.154,2.236,2.668,2.236.865,0,2.163-.5,2.163-1.659,0-.937-.937-1.3-1.731-1.514l-1.8-.433a2.043,2.043,0,0,1-1.875-2.019c0-.793.5-2.308,2.813-2.308,1.659,0,3.029.865,3.029,2.6h-.793a2.043,2.043,0,0,0-2.236-1.875c-1.082,0-2.091.433-2.091,1.659,0,.793.577,1.082,1.226,1.226l2.019.5c1.154.288,2.163.793,2.163,2.163,0,.577-.216,2.38-3.173,2.38-1.947,0-3.389-.865-3.317-2.885h.938Z" transform="translate(-659.317 -137.905)"/><path d="M693.8,152.6h5.7v.649h-4.9v2.957h4.615v.649h-4.615V160.1h4.976v.649H693.8V152.6Z" transform="translate(-662.357 -137.96)"/><path d="M650.2,172.6h6.563v.649h-2.885v7.572h-.793v-7.572H650.2Z" transform="translate(-650.2 -143.537)"/><path d="M660.3,172.6h.793v3.606H666V172.6h.793v8.221H666v-3.966h-4.9v3.966H660.3Z" transform="translate(-653.016 -143.537)"/><path d="M671.6,171.708h5.7v.649h-4.9v2.957h4.615v.649h-4.615v3.245h4.976v.649H671.6v-8.149Zm2.452-.649h-.577L674.7,169.4h.865Z" transform="translate(-656.167 -142.645)"/><path d="M683.089,171.708h.865l3.245,8.221h-.865l-1.01-2.6h-3.75l-1.01,2.6H679.7Zm2.091-.649h-.721l-1.01-1.154-1.01,1.154h-.649l1.3-1.659h.793Zm-3.317,5.7h3.245l-1.587-4.255Z" transform="translate(-658.426 -142.645)"/><path d="M688.8,172.6h6.563v.649h-2.885v7.572h-.793v-7.572H688.8Z" transform="translate(-660.963 -143.537)"/><path d="M698.9,172.6h3.75c1.37,0,2.524.649,2.524,2.163a2.03,2.03,0,0,1-1.586,2.091h0c1.082.144,1.37.865,1.442,1.875,0,.577,0,1.731.361,2.091h-.865a2.606,2.606,0,0,1-.216-1.3c-.072-1.154-.144-2.452-1.659-2.38h-2.957v3.678H698.9Zm.793,3.966h2.957a1.654,1.654,0,0,0,1.8-1.587c0-1.01-.577-1.659-1.8-1.659h-2.957Z" transform="translate(-663.78 -143.537)"/><path d="M709.6,172.6h5.7v.649h-4.9v2.957h4.615v.649h-4.615V180.1h4.976v.649H709.6V172.6Z" transform="translate(-666.763 -143.537)"/></g><line class="b" y2="38.221" transform="translate(521.955 131.6)"/></g></svg>