<svg xmlns="http://www.w3.org/2000/svg" width="243.19" height="65.591" viewBox="0 0 243.19 65.591"><defs><style>.a{fill:#e30b17;}.b{fill:#fff;}.c{fill:none;stroke:#fff;stroke-miterlimit:10;stroke-width:0.75px;}</style></defs><g transform="translate(-201.4 -131.6)"><g transform="translate(202.947 137.461)"><path class="a" d="M210.7,168.027v16.832h-6V145.1h6v16.878h7.22V145.1h6v39.758h-6V168.027Z" transform="translate(-204.7 -144.631)"/><path class="a" d="M266.571,144.1a9.208,9.208,0,0,1,6.751,2.813,9.32,9.32,0,0,1,2.766,6.7v21.707a9.208,9.208,0,0,1-2.813,6.751,9.32,9.32,0,0,1-6.7,2.766,9.03,9.03,0,0,1-6.7-2.813,9.32,9.32,0,0,1-2.766-6.7V153.618a9.208,9.208,0,0,1,2.813-6.751A8.813,8.813,0,0,1,266.571,144.1Zm3.235,9.377a3.361,3.361,0,0,0-.985-2.438,3.511,3.511,0,0,0-4.876,0,3.326,3.326,0,0,0-1.031,2.438v21.754a3.226,3.226,0,0,0,1.031,2.438,3.511,3.511,0,0,0,4.876,0,3.286,3.286,0,0,0,.985-2.438Z" transform="translate(-232.532 -144.1)"/><path class="a" d="M315.6,145.1l7.97,26.724V145.1h6v39.8h-6.423L314.9,159.447V184.9h-6V145.1Z" transform="translate(-260.046 -144.631)"/><path class="a" d="M364.4,184.8V145h17.066v6.048H370.4v10.83h8.111v6.048H370.4v10.83h11.065V184.8Z" transform="translate(-289.525 -144.578)"/><path class="a" d="M419.118,184.843a9.524,9.524,0,0,1-9.518-9.518V153.618a9.208,9.208,0,0,1,2.813-6.751,9.32,9.32,0,0,1,6.7-2.766,9.03,9.03,0,0,1,6.7,2.813,9.32,9.32,0,0,1,2.766,6.7v4.548h-6.236v-4.642a3.226,3.226,0,0,0-1.031-2.438,3.4,3.4,0,0,0-2.438-1.031,3.226,3.226,0,0,0-2.438,1.031,3.361,3.361,0,0,0-.985,2.438v21.754a3.361,3.361,0,0,0,.985,2.438,3.511,3.511,0,0,0,4.876,0,3.326,3.326,0,0,0,1.031-2.438V167.5h-3.329v-6.048h9.564v13.878a9.03,9.03,0,0,1-2.813,6.7A8.828,8.828,0,0,1,419.118,184.843Z" transform="translate(-313.534 -144.1)"/><path class="a" d="M470.518,184.843A9.524,9.524,0,0,1,461,175.325V153.618a9.208,9.208,0,0,1,2.813-6.751,9.32,9.32,0,0,1,6.7-2.766,9.03,9.03,0,0,1,6.7,2.813,9.32,9.32,0,0,1,2.766,6.7v4.548h-6.236v-4.642a3.226,3.226,0,0,0-1.031-2.438,3.4,3.4,0,0,0-2.438-1.031,3.227,3.227,0,0,0-2.438,1.031,3.362,3.362,0,0,0-.985,2.438v21.754a3.362,3.362,0,0,0,.985,2.438,3.511,3.511,0,0,0,4.876,0,3.326,3.326,0,0,0,1.031-2.438V167.5h-3.329v-6.048h9.564v13.878a9.03,9.03,0,0,1-2.813,6.7A8.828,8.828,0,0,1,470.518,184.843Z" transform="translate(-340.835 -144.1)"/><path class="a" d="M512.6,184.8V145h17.066v6.048H518.6v10.83h8.111v6.048H518.6v10.83h11.065V184.8Z" transform="translate(-368.243 -144.578)"/><path class="a" d="M567.271,145.047c3.329,0,5.814.938,7.361,2.766a10.056,10.056,0,0,1,2.063,6.7v5.767a9.3,9.3,0,0,1-3.188,7.126l4.454,17.347h-6.47L567.833,169.8H563.8v14.956h-6V145h9.471Zm3.61,9.611c0-2.3-1.125-3.469-3.423-3.469h-3.61v12.706h3.61a3.226,3.226,0,0,0,2.438-1.031,3.361,3.361,0,0,0,.985-2.438Z" transform="translate(-392.251 -144.578)"/><path class="a" d="M618.3,167.323V145.1h6v22.223l-.422,7.689h-5.11Zm0,17.535V178.81h6v6.048Z" transform="translate(-424.386 -144.631)"/></g><g transform="translate(201.4 185.611)"><path class="b" d="M210.074,250.363a3.33,3.33,0,0,0-3.423-2.672c-2.954,0-4.22,2.438-4.22,4.876s1.266,4.876,4.22,4.876a3.623,3.623,0,0,0,3.563-3.563h1.078c-.281,2.719-2.016,4.454-4.642,4.454-3.516,0-5.251-2.766-5.251-5.767s1.735-5.767,5.251-5.767a4.29,4.29,0,0,1,4.5,3.61h-1.078Z" transform="translate(-201.4 -246.8)"/><path class="b" d="M230.051,246.8c3.516,0,5.251,2.766,5.251,5.767s-1.735,5.767-5.251,5.767-5.251-2.766-5.251-5.767S226.535,246.8,230.051,246.8Zm0,10.643c2.954,0,4.173-2.438,4.173-4.876s-1.266-4.876-4.173-4.876c-2.954,0-4.22,2.438-4.22,4.876S227.1,257.443,230.051,257.443Z" transform="translate(-213.829 -246.8)"/><path class="b" d="M250.7,247.3h1.172l6.517,9.377h.047V247.3h1.078v11.112h-1.172l-6.517-9.377h-.047v9.377H250.7Z" transform="translate(-227.586 -247.066)"/><path class="b" d="M273.97,254.489c-.047,2.3,1.594,3,3.657,3,1.172,0,2.954-.656,2.954-2.25,0-1.266-1.266-1.782-2.3-2.016l-2.485-.609c-1.313-.328-2.532-.938-2.532-2.672,0-1.078.7-3.141,3.845-3.141,2.2,0,4.126,1.172,4.126,3.469h-1.078c-.047-1.688-1.453-2.532-3.048-2.532-1.453,0-2.813.563-2.813,2.2,0,1.031.8,1.5,1.688,1.688l2.719.656c1.594.422,2.907,1.125,2.907,2.907,0,.75-.328,3.188-4.267,3.188-2.626,0-4.595-1.172-4.454-3.891Z" transform="translate(-239.37 -246.8)"/><path class="b" d="M295.147,247.3h7.689v.891h-6.658v4.032h6.236v.891h-6.236v4.407h6.7v.891H295.1V247.3Z" transform="translate(-251.169 -247.066)"/><path class="b" d="M314.9,247.3h5.11c1.829,0,3.376.891,3.376,2.907a2.663,2.663,0,0,1-2.157,2.813v.047c1.453.188,1.875,1.172,1.969,2.485.047.75.047,2.3.516,2.86h-1.172a3.663,3.663,0,0,1-.281-1.735c-.094-1.547-.234-3.282-2.25-3.188h-4.032v4.923H314.9V247.3Zm1.078,5.251h3.985a2.184,2.184,0,0,0,2.391-2.157c0-1.36-.8-2.2-2.391-2.2h-3.985Z" transform="translate(-261.686 -247.066)"/><path class="b" d="M334.7,247.3h1.125l3.61,9.94h.047l3.61-9.94h1.125l-4.126,11.112h-1.219Z" transform="translate(-272.203 -247.066)"/><path class="b" d="M357.2,247.3h1.172l4.36,11.112h-1.125l-1.36-3.469h-5.064l-1.36,3.469H352.7Zm-1.688,6.751h4.407l-2.157-5.673Z" transform="translate(-281.764 -247.066)"/><path class="b" d="M371.447,247.3h8.861v.891H376.37v10.221h-1.078V248.191H371.4V247.3Z" transform="translate(-291.696 -247.066)"/><path class="b" d="M396.551,246.8c3.516,0,5.251,2.766,5.251,5.767s-1.735,5.767-5.251,5.767-5.251-2.766-5.251-5.767S393.035,246.8,396.551,246.8Zm0,10.643c2.954,0,4.173-2.438,4.173-4.876s-1.266-4.876-4.173-4.876c-2.954,0-4.22,2.438-4.22,4.876C392.378,255,393.6,257.443,396.551,257.443Z" transform="translate(-302.266 -246.8)"/><path class="b" d="M417.4,247.3h1.078v11.112H417.4Z" transform="translate(-316.129 -247.066)"/><path class="b" d="M424.7,247.3h5.11c1.828,0,3.376.891,3.376,2.907a2.663,2.663,0,0,1-2.157,2.813v.047c1.453.188,1.875,1.172,1.969,2.485.047.75.047,2.3.516,2.86h-1.172a3.663,3.663,0,0,1-.281-1.735c-.094-1.547-.234-3.282-2.25-3.188h-4.032v4.923H424.7V247.3Zm1.031,5.251h3.985a2.184,2.184,0,0,0,2.391-2.157c0-1.36-.8-2.2-2.391-2.2h-3.985Z" transform="translate(-320.007 -247.066)"/><path class="b" d="M446.847,247.3h7.689v.891h-6.658v4.032h6.236v.891h-6.236v4.407h6.7v.891H446.8V247.3Z" transform="translate(-331.745 -247.066)"/><path class="b" d="M475.9,247.3h3.844c3.376.094,5.11,1.922,5.11,5.532,0,3.657-1.782,5.485-5.11,5.532H475.9Zm1.078,10.221h2.25c3.188,0,4.595-1.36,4.595-4.642,0-3.329-1.406-4.688-4.595-4.642h-2.25Z" transform="translate(-347.202 -247.066)"/><path class="b" d="M498.5,247.3h1.078v6.892c0,2.579,1.219,3.563,3.282,3.563s3.282-.985,3.282-3.563V247.3h1.078v7.126c0,2.3-1.219,4.22-4.36,4.22-3.094,0-4.313-1.922-4.313-4.22V247.3Z" transform="translate(-359.206 -247.066)"/><path class="b" d="M530.9,247.3h1.078v4.829h6.611V247.3h1.078v11.112h-1.078V253.02h-6.611v5.392H530.9Z" transform="translate(-376.416 -247.066)"/><path class="b" d="M556.2,247.3h1.172l4.36,11.112h-1.125l-1.36-3.469h-5.063l-1.36,3.469H551.7Zm-1.688,6.751h4.407l-2.157-5.673Z" transform="translate(-387.464 -247.066)"/><path class="b" d="M571.1,247.3h1.125l3.61,9.94h.047l3.61-9.94h1.125l-4.126,11.112h-1.219Z" transform="translate(-397.768 -247.066)"/><path class="b" d="M593.5,247.3h5.11c1.828,0,3.376.891,3.376,2.907a2.663,2.663,0,0,1-2.157,2.813v.047c1.453.188,1.875,1.172,1.969,2.485.047.75.047,2.3.516,2.86h-1.172a3.664,3.664,0,0,1-.281-1.735c-.094-1.547-.234-3.282-2.25-3.188h-4.032v4.923H593.5V247.3Zm1.032,5.251h3.985a2.184,2.184,0,0,0,2.391-2.157c0-1.36-.8-2.2-2.391-2.2h-3.985Z" transform="translate(-409.666 -247.066)"/><path class="b" d="M615.7,247.3h7.689v.891h-6.611v4.032h6.236v.891h-6.236v4.407h6.7v.891H615.7Z" transform="translate(-421.458 -247.066)"/></g><rect class="a" width="6.001" height="30.006" transform="translate(396.861 137.929)"/><g transform="translate(411.818 131.928)"><path class="b" d="M651.4,132.6h.75l1.875,4.688,1.829-4.688h.75v5.345h-.516V133.3h0l-1.828,4.642h-.469l-1.828-4.642h0v4.642h-.516V132.6Z" transform="translate(-650.837 -132.459)"/><path class="b" d="M664.6,132.6h.516v3.329c0,1.266.563,1.735,1.547,1.735s1.594-.469,1.594-1.735V132.6h.516v3.423a1.894,1.894,0,0,1-2.063,2.063,1.872,1.872,0,0,1-2.063-2.063V132.6Z" transform="translate(-657.848 -132.459)"/><path class="b" d="M675.508,136.1c0,1.125.75,1.453,1.735,1.453.563,0,1.406-.328,1.406-1.078,0-.61-.61-.844-1.125-.985l-1.172-.281a1.328,1.328,0,0,1-1.219-1.313c0-.516.328-1.5,1.828-1.5,1.078,0,1.969.563,1.969,1.688h-.516a1.328,1.328,0,0,0-1.453-1.219c-.7,0-1.36.281-1.36,1.078,0,.516.375.7.8.8l1.313.328c.75.188,1.407.516,1.407,1.407,0,.375-.141,1.547-2.063,1.547-1.266,0-2.2-.563-2.157-1.875h.609Z" transform="translate(-663.318 -132.353)"/><path class="b" d="M685.9,132.6h.516v5.345H685.9Z" transform="translate(-669.162 -132.459)"/><path class="b" d="M693.482,138.161l-.844-.609a2.612,2.612,0,0,1-1.407.375,2.829,2.829,0,1,1,2.532-2.813,2.941,2.941,0,0,1-.8,2.11l.75.563Zm-.891-1.172a2.549,2.549,0,0,0,.7-1.829,2.039,2.039,0,1,0-2.016,2.344,1.733,1.733,0,0,0,.985-.281l-.7-.516.281-.328Z" transform="translate(-670.649 -132.3)"/><path class="b" d="M701.1,132.6h.516v3.329c0,1.266.563,1.735,1.547,1.735s1.594-.469,1.594-1.735V132.6h.516v3.423a1.908,1.908,0,0,1-2.11,2.063,1.872,1.872,0,0,1-2.063-2.063V132.6Z" transform="translate(-677.236 -132.459)"/><path class="b" d="M712.1,132.6h3.7v.422h-3.188v1.922h3v.422h-3v2.11h3.235v.422H712.1v-5.3Z" transform="translate(-683.078 -132.459)"/><path class="b" d="M651.4,152.6h1.875c1.594.047,2.438.938,2.438,2.672s-.844,2.626-2.438,2.672H651.4Zm.516,4.923h1.078c1.547,0,2.2-.656,2.2-2.25s-.656-2.25-2.2-2.25h-1.078Z" transform="translate(-650.837 -143.082)"/><path class="b" d="M663.2,152.6h.563l2.11,5.345h-.563l-.656-1.688h-2.438l-.656,1.688H661Zm-.8,3.282h2.11l-1.031-2.766Z" transform="translate(-655.937 -143.082)"/><path class="b" d="M672.4,152.6h.563l3.141,4.548h0V152.6h.516v5.345h-.563l-3.141-4.548h0v4.548H672.4Z" transform="translate(-661.992 -143.082)"/><path class="b" d="M683.508,156.1c0,1.125.75,1.453,1.735,1.453.563,0,1.406-.328,1.406-1.078,0-.609-.609-.844-1.125-.985l-1.172-.281a1.328,1.328,0,0,1-1.219-1.313c0-.516.328-1.5,1.828-1.5,1.078,0,1.969.563,1.969,1.688h-.516a1.328,1.328,0,0,0-1.453-1.219c-.7,0-1.36.281-1.36,1.078,0,.516.375.7.8.8l1.313.328c.75.188,1.406.516,1.406,1.407,0,.375-.141,1.547-2.063,1.547-1.266,0-2.2-.563-2.157-1.875h.609Z" transform="translate(-667.567 -142.976)"/><path class="b" d="M693.8,152.6h3.7v.422h-3.188v1.922h3v.422h-3v2.11h3.235v.422H693.8v-5.3Z" transform="translate(-673.358 -143.082)"/><path class="b" d="M650.2,172.6h4.266v.422h-1.875v4.923h-.516v-4.923H650.2Z" transform="translate(-650.2 -153.706)"/><path class="b" d="M660.3,172.6h.516v2.344H664V172.6h.516v5.345H664v-2.579h-3.188v2.579H660.3Z" transform="translate(-655.565 -153.706)"/><path class="b" d="M671.6,170.9h3.7v.422h-3.188v1.922h3v.422h-3v2.11h3.235v.422H671.6v-5.3Zm1.594-.422h-.375l.8-1.078h.563Z" transform="translate(-661.567 -152.006)"/><path class="b" d="M681.9,170.9h.563l2.11,5.345h-.563l-.656-1.688h-2.438l-.656,1.688H679.7Zm1.36-.422h-.469l-.656-.75-.656.75h-.422l.844-1.078h.516Zm-2.157,3.7h2.11l-1.031-2.766Z" transform="translate(-665.869 -152.006)"/><path class="b" d="M688.8,172.6h4.266v.422h-1.875v4.923h-.516v-4.923H688.8Z" transform="translate(-670.703 -153.706)"/><path class="b" d="M698.9,172.6h2.438c.891,0,1.641.422,1.641,1.407a1.32,1.32,0,0,1-1.031,1.36h0c.7.094.891.563.938,1.219,0,.375,0,1.125.234,1.36h-.563a1.694,1.694,0,0,1-.141-.844c-.047-.75-.094-1.594-1.078-1.547h-1.922v2.391H698.9Zm.516,2.579h1.922a1.075,1.075,0,0,0,1.172-1.031c0-.656-.375-1.078-1.172-1.078h-1.922Z" transform="translate(-676.067 -153.706)"/><path class="b" d="M709.6,172.6h3.7v.422h-3.188v1.922h3v.422h-3v2.11h3.235v.422H709.6v-5.3Z" transform="translate(-681.751 -153.706)"/></g><line class="c" y2="24.849" transform="translate(409.802 131.6)"/></g></svg>