<svg xmlns="http://www.w3.org/2000/svg" width="29.535" height="26.314" viewBox="0 0 29.535 26.314"><defs><style>.a,.b{fill:none;stroke-linecap:round;}.a,.b,.c{stroke:#000;stroke-width:1.5px;}.a{stroke-linejoin:round;}.c{fill:#394553;stroke-miterlimit:10;}</style></defs><g transform="translate(0.768 0.75)"><path class="a" d="M309.47,289.559c-2.179,0-3.065-1.542-1.977-3.428l11.559-19.972c1.092-1.886,2.877-1.885,3.967,0l11.545,19.969c1.09,1.886.2,3.429-1.98,3.429Z" transform="translate(-307.028 -264.745)"/><path class="a" d="M313.081,290.495l11.2-19.349,11.186,19.349Z" transform="translate(-310.273 -268.176)"/><line class="b" y2="6.308" transform="translate(14 9.416)"/><g transform="translate(13.639 18.206)"><g transform="translate(0 0)"><path class="c" d="M337.149,304.35a.361.361,0,1,1-.36-.362A.36.36,0,0,1,337.149,304.35Z" transform="translate(-336.427 -303.988)"/></g></g></g></svg>