<svg xmlns="http://www.w3.org/2000/svg" width="21.615" height="28.32" viewBox="0 0 21.615 28.32"><defs><style>.a,.b{fill:none;stroke:#000;stroke-miterlimit:10;stroke-width:1.5px;}.b{stroke-linecap:round;}</style></defs><g transform="translate(0.75 0.75)"><path class="a" d="M205.874,487.168H192.8l-5.183,4.5v20.465a1.862,1.862,0,0,0,1.857,1.857h16.4a1.862,1.862,0,0,0,1.857-1.857V489.025A1.862,1.862,0,0,0,205.874,487.168Z" transform="translate(-187.616 -487.168)"/><path class="a" d="M198.368,487.941v5.714H194.88" transform="translate(-191.508 -487.582)"/><g transform="translate(3.359 9.937)"><path class="a" d="M194.852,510.086l1.416,1.135,2.084-2.648" transform="translate(-194.852 -508.573)"/><line class="b" x2="7.544" transform="translate(5.787 1.917)"/></g><g transform="translate(3.359 14.889)"><path class="a" d="M194.852,520.753l1.416,1.135,2.084-2.648" transform="translate(-194.852 -519.24)"/><line class="b" x2="7.544" transform="translate(5.787 1.917)"/></g><g transform="translate(3.359 19.84)"><path class="a" d="M194.852,531.419l1.416,1.135,2.084-2.647" transform="translate(-194.852 -529.906)"/><line class="b" x2="7.544" transform="translate(5.787 1.917)"/></g></g></svg>