<svg xmlns="http://www.w3.org/2000/svg" width="32.547" height="32.178" viewBox="0 0 32.547 32.178"><defs><style>.a,.b,.c{fill:none;stroke:#000;stroke-width:1.5px;}.a,.b{stroke-linecap:round;}.a,.c{stroke-linejoin:round;}.b{stroke-miterlimit:10;}</style></defs><g transform="translate(0.75 0.75)"><g transform="translate(9.985)"><g transform="translate(2.819 3.386)"><g transform="translate(0 3.029)"><line class="a" x2="5.418"/><line class="a" x2="4.644" transform="translate(0 1.702)"/></g><path class="b" d="M279.551,315.295a3.88,3.88,0,1,0,0,6.419" transform="translate(-272.095 -314.624)"/></g><path class="c" d="M279.856,315.313a7.29,7.29,0,1,1-7.291-7.288A7.289,7.289,0,0,1,279.856,315.313Z" transform="translate(-265.276 -308.025)"/></g><g transform="translate(0 14.288)"><g transform="translate(2.819 3.386)"><g transform="translate(0 3.029)"><line class="a" x2="5.418"/><line class="a" x2="4.644" transform="translate(0 1.702)"/></g><path class="b" d="M260.088,343.144a3.88,3.88,0,1,0,0,6.419" transform="translate(-252.632 -342.473)"/></g><path class="c" d="M260.394,343.162a7.29,7.29,0,1,1-7.292-7.288A7.289,7.289,0,0,1,260.394,343.162Z" transform="translate(-245.814 -335.874)"/></g><g transform="translate(16.467 16.102)"><g transform="translate(2.819 3.386)"><g transform="translate(0 3.029)"><line class="a" x2="5.418"/><line class="a" x2="4.644" transform="translate(0 1.702)"/></g><path class="b" d="M292.186,346.679a3.88,3.88,0,1,0,0,6.419" transform="translate(-284.73 -346.008)"/></g><path class="c" d="M292.491,346.7a7.29,7.29,0,1,1-7.291-7.288A7.289,7.289,0,0,1,292.491,346.7Z" transform="translate(-277.911 -339.409)"/></g></g></svg>