<svg xmlns="http://www.w3.org/2000/svg" width="29.878" height="32.732" viewBox="0 0 29.878 32.732"><defs><style>.a{fill:none;stroke:#000;stroke-miterlimit:10;stroke-width:1.5px;}</style></defs><g transform="translate(0.75 0.75)"><g transform="translate(8.669)"><path class="a" d="M343.86,153.214a3.475,3.475,0,1,1-3.475-3.475A3.474,3.474,0,0,1,343.86,153.214Z" transform="translate(-334.856 -149.739)"/><path class="a" d="M341.361,190.737l-.011-8.872a2.731,2.731,0,0,0,2.718-2.732v-7.5a2.737,2.737,0,0,0-2.732-2.727h-5.579a2.743,2.743,0,0,0-2.727,2.739v7.5a2.745,2.745,0,0,0,2.742,2.726l.01,8.867" transform="translate(-333.03 -158.756)"/></g><g transform="translate(20.786 3.549)"><path class="a" d="M362.864,159.917a3.475,3.475,0,1,1-3.475-3.475A3.474,3.474,0,0,1,362.864,159.917Z" transform="translate(-355.915 -156.442)"/><path class="a" d="M362.157,193.958l-.012-7.194a2.738,2.738,0,0,0,2.727-2.732l-.009-5.558a2.737,2.737,0,0,0-2.732-2.727h-3.315" transform="translate(-357.28 -165.526)"/></g><g transform="translate(0 3.549)"><path class="a" d="M317.869,159.917a3.475,3.475,0,1,0,3.475-3.475A3.475,3.475,0,0,0,317.869,159.917Z" transform="translate(-317.226 -156.442)"/><path class="a" d="M319.37,193.958l.011-7.194a2.737,2.737,0,0,1-2.727-2.732l.008-5.558a2.737,2.737,0,0,1,2.732-2.727h3.315" transform="translate(-316.655 -165.526)"/></g></g></svg>