<svg xmlns="http://www.w3.org/2000/svg" width="29.841" height="31.145" viewBox="0 0 29.841 31.145"><defs><style>.a,.b{fill:none;stroke:#000;stroke-width:1.5px;}.a{stroke-linecap:round;stroke-linejoin:round;}.b{stroke-miterlimit:10;}</style></defs><g transform="translate(0.755 0.75)"><path class="a" d="M438.628,170.445a5.745,5.745,0,0,0-2.859-.284c-2.79.415-4.768,2.673-4.415,5.044s2.9,3.957,5.691,3.542a4.965,4.965,0,0,0,4.464-5.045V151.973l-18.139,2.8V176.5a4.964,4.964,0,0,1-4.464,5.045c-2.79.415-5.339-1.17-5.691-3.541s1.624-4.629,4.414-5.045a5.755,5.755,0,0,1,2.9.3" transform="translate(-413.174 -151.973)"/><line class="b" y1="2.544" x2="18.096" transform="translate(10.198 6.813)"/></g></svg>