<svg xmlns="http://www.w3.org/2000/svg" width="28.812" height="28.813" viewBox="0 0 28.812 28.813"><defs><style>.a{fill:none;stroke:#000;stroke-linecap:round;stroke-linejoin:round;stroke-width:1.5px;}</style></defs><g transform="translate(0.75 0.75)"><path class="a" d="M54.635,508.763l-2.162,3.013,2.755,2.755,3.014-2.162a10.257,10.257,0,0,0,2.693,1.118l.623,3.666h3.9l.624-3.666a10.247,10.247,0,0,0,2.694-1.119l3.013,2.162,2.755-2.755-2.162-3.012a10.253,10.253,0,0,0,1.125-2.717l3.659-.6v-3.9l-3.658-.6a10.262,10.262,0,0,0-1.113-2.7l2.15-3.032-2.756-2.755-3.032,2.15a10.236,10.236,0,0,0-2.7-1.113l-.6-3.66h-3.9l-.6,3.661a10.255,10.255,0,0,0-2.7,1.112l-3.033-2.15-2.755,2.755,2.15,3.032a10.248,10.248,0,0,0-1.108,2.676l-3.664.623v3.9l3.664.623A10.239,10.239,0,0,0,54.635,508.763Z" transform="translate(-49.851 -489.841)"/><path class="a" d="M77.28,513.528a3.743,3.743,0,1,1-3.742-3.742A3.743,3.743,0,0,1,77.28,513.528Z" transform="translate(-59.882 -499.872)"/></g></svg>