<svg xmlns="http://www.w3.org/2000/svg" width="28.921" height="28.921" viewBox="0 0 28.921 28.921"><defs><style>.a{fill:none;stroke:#000;stroke-linecap:round;stroke-linejoin:round;stroke-width:1.5px;}</style></defs><g transform="translate(0.75 0.75)"><path class="a" d="M198.821,398.2a3.955,3.955,0,1,1,4.043-4.043l4.846-4.846-4.749-4.749a3.958,3.958,0,1,0-3.846-3.846L194.2,375.8l-4.847,4.846a3.914,3.914,0,0,1,2.7,1.149,3.958,3.958,0,0,1-5.6,5.6,6.969,6.969,0,0,1-1.174-2.675l-4.99,4.991,4.916,4.917a3.958,3.958,0,1,0,3.849,3.849l4.747,4.747Z" transform="translate(-180.29 -375.803)"/></g></svg>